<mxfile host="app.diagrams.net" modified="2024-07-02T14:35:11.760Z" agent="Mozilla/5.0 (Windows NT 10.0; Win64; x64) AppleWebKit/537.36 (KHTML, like Gecko) Chrome/126.0.0.0 Safari/537.36" version="24.3.1" etag="NctdMOBPeiUrd69ECrIe" type="github">
  <diagram name="PÃ¡gina-1" id="6TApbZy9F-b35aKkab9U">
    <mxGraphModel>
      <root>
        <mxCell id="0" />
        <mxCell id="1" parent="0" />
      </root>
    </mxGraphModel>
  </diagram>
</mxfile>
